
<svg xmlns="http://www.w3.org/2000/svg" version="1.1" xmlns:xlink="http://www.w3.org/1999/xlink" preserveAspectRatio="none" x="0px" y="0px" width="210px" height="210px" viewBox="0 0 210 210">
<defs>
<g id="Layer4_0_FILL">
<path fill="#FFFFFF" stroke="none" d="
M 28.5 33.95
Q 23.05 33.05 17.5 33.3 24.1 37.25 26.7 44.85 27.6 47.45 28.5 50 29.1 51.7 29.7 53.4 33.1 63 42.2 67.4 42.55 67.6 42.95 67.75 52.45 72.05 62.4 69.5 64.45 68.9 65.7 67.4 66.35 66.6 66.8 65.55 68 62.55 67.05 59.45 66.9 59 66.7 58.55 65.6 55.95 64.15 53.7 60.4 47.7 54.3 43.9 45.95 38.75 36.6 35.8 36.55 35.8 36.5 35.8 32.55 34.55 28.5 33.95
M 68.3 25.5
Q 66.1 23 63.3 20.5 62.25 23.05 61.55 25.5 56.1 44.45 71 56.15 71.5 56.6 72.15 56.9 81.75 40.85 68.3 25.5 Z"/>
</g>

<g id="Layer3_0_FILL">
<path fill="#FFFFFF" stroke="none" d="
M 173.65 169.6
Q 198.5 144.65 198.5 109.45 198.5 74.25 173.65 49.35 148.75 24.45 113.5 24.45 78.35 24.45 53.4 49.35 28.5 74.25 28.5 109.45 28.5 144.65 53.4 169.6 78.35 194.45 113.5 194.45 148.75 194.45 173.65 169.6 Z"/>
</g>

<g id="Symbol_1_0_Layer0_0_FILL">
<path fill="#01C201" stroke="none" d="
M 54.65 36.4
Q 65.8 17.7 45.8 0 36.7 22.45 53.5 35.65 54 36.1 54.65 36.4 Z"/>

<path fill="#008000" stroke="none" d="
M 49.2 38.05
Q 48.1 35.45 46.65 33.2 42.9 27.2 36.8 23.4 28.45 18.25 19.1 15.3 15.1 14.05 11 13.45 5.55 12.55 0 12.8 6.6 16.75 9.2 24.35 10.1 26.95 11 29.5 11.6 31.2 12.2 32.9 15.6 42.5 24.7 46.9 25.05 47.1 25.45 47.25 34.95 51.55 44.9 49 46.95 48.4 48.2 46.9 48.85 46.1 49.3 45.05 50.7 41.6 49.2 38.05 Z"/>

<path fill="#FF8000" stroke="none" d="
M 45.65 112.2
Q 49.65 121.1 57.1 128.55 73.25 144.6 96 144.6 104.75 144.6 112.55 142.25 113.15 142.05 113.8 141.85 116.35 140.95 118.85 139.85 122.7 138.05 126.25 135.7 130.8 132.65 134.9 128.55 142.05 121.4 146.05 112.9 146.75 111.45 147.3 109.95 145.2 111.5 143.05 112.9 127.1 123.4 111.05 126.85 110 127.05 109 127.25 108.55 127.35 108.1 127.4 98.55 129.1 88.95 128.3 87.95 128.2 87 128.1 86.65 128.05 86.4 128.05 66.1 125.6 45.65 112.2 Z"/>

<path fill="#FFA601" stroke="none" d="
M 151 89.6
Q 151 66.85 134.9 50.7 134 49.8 133.1 48.95 134.95 52.5 134.95 56.5 134.95 65.15 126.25 71.6 124.85 72.6 123.3 73.55 111.7 80.6 95.3 80.6 78.9 80.6 67.25 73.55 65.7 72.6 64.35 71.6 55.65 65.15 55.65 56.5 55.65 53.95 56.4 51.6
L 56.25 51.6
Q 52.05 55.95 49.05 60.75
L 48.85 61.05
Q 42.5 71.3 41.3 83.7 41 86.6 41 89.6 41 101.85 45.65 112.2 66.1 125.6 86.4 128.05 86.65 128.05 87 128.1 87.95 128.2 88.95 128.3 98.55 129.1 108.1 127.4 108.55 127.35 109 127.25 110 127.05 111.05 126.85 127.1 123.4 143.05 112.9 145.2 111.5 147.3 109.95 148 108.2 148.55 106.45 151 98.55 151 89.6 Z"/>

<path fill="#FFD500" stroke="none" d="
M 117.8 41.1
Q 108.55 35.95 95.5 35.95 82.45 35.95 73.25 41.1 64 46.2 64 53.45 64 60.7 73.25 65.85 82.45 70.95 95.5 70.95 108.55 70.95 117.8 65.85 127 60.7 127 53.45 127 46.2 117.8 41.1 Z"/>
</g>

<path id="Layer4_0_1_STROKES" stroke="#FFFFFF" stroke-width="19" stroke-linejoin="round" stroke-linecap="round" fill="none" d="
M 63.3 20.5
Q 62.25 23.05 61.55 25.5 56.1 44.45 71 56.15 71.5 56.6 72.15 56.9 81.75 40.85 68.3 25.5 66.1 23 63.3 20.5 Z
M 17.5 33.3
Q 24.1 37.25 26.7 44.85 27.6 47.45 28.5 50 29.1 51.7 29.7 53.4 33.1 63 42.2 67.4 42.55 67.6 42.95 67.75 52.45 72.05 62.4 69.5 64.45 68.9 65.7 67.4 66.35 66.6 66.8 65.55 68 62.55 67.05 59.45 66.9 59 66.7 58.55 65.6 55.95 64.15 53.7 60.4 47.7 54.3 43.9 45.95 38.75 36.6 35.8 36.55 35.8 36.5 35.8 32.55 34.55 28.5 33.95 23.05 33.05 17.5 33.3 Z"/>

<path id="Symbol_1_0_Layer0_0_1_STROKES" stroke="#333333" stroke-width="10" stroke-linejoin="round" stroke-linecap="round" fill="none" d="
M 72.45 23.8
Q 74.7 23 77 22.4 86 19.95 96 19.95 125 19.95 145.5 40.45 166 60.95 166 89.95 166 118.95 145.5 139.45 125 159.95 96 159.95 66.95 159.95 46.45 139.45 26 118.95 26 89.95 26 76.55 30.4 64.95 30.55 64.45 30.75 64 30.95 63.5 31.15 63"/>
</defs>

<g transform="matrix( 1, 0, 0, 1, 0,0) ">
<use xlink:href="#Layer4_0_FILL"/>

<use xlink:href="#Layer4_0_1_STROKES"/>
</g>

<g transform="matrix( 1, 0, 0, 1, 0,0) ">
<use xlink:href="#Layer3_0_FILL"/>
</g>

<g transform="matrix( 1, 0, 0, 1, 17.5,19.45) ">
<g transform="matrix( 1, 0, 0, 1, 0,0) ">
<use xlink:href="#Symbol_1_0_Layer0_0_FILL"/>

<use xlink:href="#Symbol_1_0_Layer0_0_1_STROKES"/>
</g>
</g>
</svg>
